<svg xmlns="http://www.w3.org/2000/svg" viewBox="0 0 66 59" width="66" height="59">
	<path id="logos" class="shp0" d="M38.11 12.71L27.6 12.71L32.85 21.9L38.11 12.71ZM26.29 13.48L21.03 22.67L31.54 22.67L26.29 13.48ZM44.68 22.67L39.42 13.48L34.17 22.67L44.68 22.67ZM34.17 24.2L39.42 33.39L44.68 24.2L34.17 24.2ZM21.03 24.2L26.29 33.39L31.54 24.2L21.03 24.2ZM14.46 34.15L24.97 34.15L19.72 24.97L14.46 34.15ZM51.24 34.15L45.99 24.97L40.74 34.15L51.24 34.15ZM32.85 1.99L27.6 11.18L38.11 11.18L32.85 1.99ZM45.99 44.87L51.24 35.69L40.74 35.69L45.99 44.87ZM19.72 44.87L24.97 35.69L14.46 35.69L19.72 44.87ZM7.9 45.64L18.4 45.64L13.15 36.45L7.9 45.64ZM57.81 45.64L52.56 36.45L47.3 45.64L57.81 45.64ZM47.3 47.17L52.56 56.36L57.81 47.17L47.3 47.17ZM34.17 47.17L39.42 56.36L44.68 47.17L34.17 47.17ZM13.15 56.36L18.4 47.17L7.9 47.17L13.15 56.36ZM1.33 57.13L11.84 57.13L6.58 47.94L1.33 57.13ZM27.6 57.13L38.11 57.13L32.85 47.94L27.6 57.13ZM40.74 57.13L51.24 57.13L45.99 47.94L40.74 57.13ZM59.13 47.94L53.87 57.13L64.38 57.13L59.13 47.94Z" />
</svg>