<svg xmlns="http://www.w3.org/2000/svg" viewBox="0 0 46 46" width="46" height="46"><path d="M44.93 22.85C44.93 21.23 43.76 19.5 42.32 18.99C40.88 18.48 39.49 17.24 39.08 16.25C38.68 15.27 38.78 13.4 39.44 12.02C40.09 10.64 39.69 8.59 38.55 7.44C37.4 6.3 35.36 5.9 33.98 6.56C32.6 7.21 30.73 7.32 29.75 6.91C28.76 6.51 27.52 5.11 27.01 3.67C26.49 2.23 24.76 1.07 23.14 1.07C21.52 1.07 19.79 2.23 19.28 3.67C18.77 5.11 17.52 6.51 16.54 6.91C15.56 7.32 13.69 7.21 12.31 6.56C10.93 5.9 8.88 6.3 7.74 7.44C6.59 8.59 6.19 10.64 6.85 12.02C7.51 13.4 7.61 15.27 7.2 16.25C6.8 17.23 5.41 18.48 3.97 18.99C2.53 19.5 1.36 21.23 1.36 22.85C1.36 24.47 2.53 26.2 3.97 26.71C5.41 27.22 6.8 28.47 7.21 29.45C7.61 30.43 7.51 32.3 6.85 33.68C6.19 35.06 6.59 37.11 7.74 38.26C8.88 39.4 10.93 39.8 12.31 39.14C13.69 38.49 15.56 38.38 16.54 38.79C17.52 39.2 18.77 40.59 19.28 42.03C19.79 43.47 21.52 44.63 23.14 44.63C24.76 44.63 26.49 43.47 27.01 42.03C27.52 40.59 28.76 39.2 29.74 38.79C30.73 38.38 32.6 38.49 33.98 39.14C35.36 39.8 37.4 39.4 38.55 38.26C39.69 37.11 40.09 35.06 39.44 33.68C38.78 32.3 38.67 30.43 39.08 29.45C39.48 28.47 40.88 27.22 42.32 26.71C43.76 26.2 44.93 24.47 44.93 22.85ZM23.14 30.84C18.72 30.84 15.15 27.27 15.15 22.86C15.15 18.44 18.72 14.87 23.14 14.87C27.55 14.87 31.13 18.44 31.13 22.86C31.13 27.27 27.55 30.84 23.14 30.84Z" /></svg>