<svg xmlns="http://www.w3.org/2000/svg" viewBox="0 0 20 27" width="20" height="27">
	<path id="icon-cart" class="shp0" d="M16 5L14.5 5C14.5 3.34 12.48 2 10 2C7.51 2 5.5 3.34 5.5 5L4 5C2.35 5 1 6.34 1 8L1 23C1 24.65 2.35 25.99 4 25.99L16 25.99C17.65 25.99 18.99 24.65 18.99 23L18.99 8C18.99 6.34 17.65 5 16 5ZM10 3.5C11.66 3.5 13 3.96 13 5L7 5C7 3.96 8.34 3.5 10 3.5ZM17.49 23C17.49 23.82 16.82 24.49 16 24.49L4 24.49C3.17 24.49 2.5 23.82 2.5 23L2.5 21.5L17.49 21.5L17.49 23ZM17.49 20L2.5 20L2.5 8C2.5 7.17 3.17 6.5 4 6.5L5.5 6.5L5.5 11L7 11L7 6.5L13 6.5L13 11L14.5 11L14.5 6.5L16 6.5C16.82 6.5 17.49 7.17 17.49 8L17.49 20Z" />
</svg>