<svg xmlns="http://www.w3.org/2000/svg" viewBox="0 0 27 28" width="27" height="28">
	<path d="M24.76 24.68L18.57 18.59C20.19 16.82 21.19 14.49 21.19 11.93C21.19 6.44 16.67 2 11.09 2C5.52 2 1 6.44 1 11.93C1 17.42 5.52 21.86 11.09 21.86C13.5 21.86 15.71 21.03 17.45 19.64L23.66 25.76C23.97 26.06 24.46 26.06 24.76 25.76C25.06 25.46 25.06 24.98 24.76 24.68ZM11.09 20.33C6.38 20.33 2.55 16.57 2.55 11.93C2.55 7.29 6.38 3.52 11.09 3.52C15.81 3.52 19.63 7.29 19.63 11.93C19.63 16.57 15.81 20.33 11.09 20.33Z" />
</svg>