<svg xmlns="http://www.w3.org/2000/svg" viewBox="0 0 55 38" width="55" height="38"><path d="M10 14.25C11 12.19 13.47 10.64 15.74 10.64L41.95 10.64L41.95 8.98C41.95 7.62 40.84 6.5 39.49 6.5L28.67 6.5L28.67 5.06C28.67 3 27.02 1.33 24.99 1.33L18.7 1.33C17.72 1.33 16.79 1.72 16.09 2.43C15.39 3.13 15.01 4.06 15.01 5.06L15.01 6.5L4.2 6.5C2.84 6.5 1.74 7.62 1.74 8.98L1.74 31.15L10 14.25ZM17.47 5.06C17.47 4.73 17.6 4.42 17.83 4.18C18.06 3.94 18.37 3.82 18.7 3.82L24.99 3.82C25.67 3.82 26.22 4.37 26.22 5.06L26.22 6.5L17.47 6.5L17.47 5.06ZM42.92 34.76C42.33 35.98 40.73 36.98 39.38 36.98L4.08 36.98C2.73 36.98 2.11 35.98 2.71 34.76L12.2 15.34C12.8 14.12 14.39 13.12 15.74 13.12L51.04 13.12C52.39 13.12 53.01 14.12 52.41 15.34L42.92 34.76Z" /></svg>