<svg xmlns="http://www.w3.org/2000/svg" viewBox="0 0 51 51" width="51" height="51"><path id="icon" class="shp0" d="M48.67 18.47C48.04 17.85 47.04 17.85 46.42 18.47L32.57 32.31L13.11 40.89L10.11 37.89L18.68 18.42L32.53 4.58C33.15 3.95 33.15 2.95 32.53 2.33C31.9 1.71 30.9 1.71 30.28 2.33L16.01 16.59L1.53 49.46L34.4 34.99L48.67 20.72C49.29 20.1 49.29 19.09 48.67 18.47ZM28.5 29.47C28.81 29.77 29.21 29.93 29.62 29.93C30.03 29.93 30.43 29.77 30.75 29.47L44.08 16.13C44.7 15.51 44.7 14.51 44.08 13.88C43.45 13.26 42.45 13.26 41.83 13.88L28.5 27.22C27.88 27.84 27.88 28.84 28.5 29.47ZM25.02 25.99C25.33 26.29 25.73 26.45 26.14 26.45C26.55 26.45 26.95 26.29 27.26 25.99L40.6 12.65C41.22 12.03 41.22 11.02 40.6 10.4C39.97 9.78 38.97 9.78 38.35 10.4L25.02 23.73C24.39 24.35 24.39 25.36 25.02 25.99ZM21.53 22.5C21.84 22.81 22.25 22.97 22.66 22.97C23.07 22.97 23.47 22.81 23.78 22.5L37.12 9.17C37.74 8.55 37.74 7.54 37.12 6.92C36.5 6.3 35.49 6.3 34.87 6.92L21.53 20.25C20.91 20.87 20.91 21.88 21.53 22.5Z" /></svg>